<svg width="16" height="16" viewBox="0 0 16 16" fill="none" xmlns="http://www.w3.org/2000/svg">
<path d="M1 11.75V11C1 10.4477 1.44772 10 2 10C2.55228 10 3 10.4477 3 11V11.75C3 12.4404 3.55964 13 4.25 13H5C5.55228 13 6 13.4477 6 14C6 14.5523 5.55228 15 5 15H4.25C2.45507 15 1 13.5449 1 11.75ZM13 11.75V11C13 10.4477 13.4477 10 14 10C14.5523 10 15 10.4477 15 11V11.75C15 13.5449 13.5449 15 11.75 15H11C10.4477 15 10 14.5523 10 14C10 13.4477 10.4477 13 11 13H11.75C12.4404 13 13 12.4404 13 11.75ZM1 5V4.25C1 2.45507 2.45507 1 4.25 1H5C5.55228 1 6 1.44772 6 2C6 2.55228 5.55228 3 5 3H4.25C3.55964 3 3 3.55964 3 4.25V5C3 5.55228 2.55228 6 2 6C1.44772 6 1 5.55228 1 5ZM13 5V4.25C13 3.55964 12.4404 3 11.75 3H11C10.4477 3 10 2.55228 10 2C10 1.44772 10.4477 1 11 1H11.75C13.5449 1 15 2.45507 15 4.25V5C15 5.55228 14.5523 6 14 6C13.4477 6 13 5.55228 13 5Z" fill="white"/>
</svg>
