<svg width="72" height="18" viewBox="0 0 72 18" fill="none" xmlns="http://www.w3.org/2000/svg">
<path fill-rule="evenodd" clip-rule="evenodd" d="M66.6725 5.45833C67.7421 5.45833 68.6766 5.69326 69.4752 6.1625C70.2739 6.63183 70.8946 7.26501 71.3367 8.06146C71.7788 8.85788 72 9.76108 72 10.7708V11.2614C72 11.4321 71.9857 11.6099 71.9572 11.7948H64.0099C64.0407 12.2556 64.1435 12.6683 64.3201 13.0323C64.5483 13.4587 64.8621 13.7926 65.2613 14.0343C65.6606 14.2618 66.124 14.376 66.6517 14.376C67.1793 14.376 67.6141 14.2619 67.9564 14.0343C68.3128 13.8069 68.577 13.5158 68.7482 13.1604H71.7002C71.5006 13.8285 71.1656 14.4327 70.6953 14.9729C70.2247 15.5132 69.6467 15.9402 68.9623 16.2531C68.2777 16.566 67.514 16.7229 66.6725 16.7229C65.5888 16.7228 64.6266 16.4945 63.7853 16.0395C62.9582 15.5703 62.3088 14.9237 61.8381 14.0989C61.3818 13.2598 61.1539 12.292 61.1539 11.1968C61.154 10.0736 61.3819 9.08547 61.8381 8.23229C62.3088 7.36474 62.9581 6.68876 63.7853 6.20521C64.6123 5.70765 65.5747 5.45839 66.6725 5.45833ZM66.6725 7.80521C66.1878 7.80526 65.7385 7.91938 65.325 8.14688C64.9116 8.36017 64.5834 8.69405 64.341 9.14896C64.2109 9.40844 64.1191 9.70774 64.0631 10.0458H69.0908C69.048 9.3491 68.798 8.80132 68.3418 8.40313C67.8997 8.0049 67.3429 7.80521 66.6725 7.80521Z" fill="white"/>
<path d="M42.6489 16.4666H39.7605V1.10625H42.6489V16.4666Z" fill="white"/>
<path d="M47.9888 16.4666H45.1005V5.71458H47.9888V16.4666Z" fill="white"/>
<path d="M55.1214 13.7573L57.7955 5.71458H60.8124L56.8763 16.4666H53.3675L49.4095 5.71458H52.4472L55.1214 13.7573Z" fill="white"/>
<path d="M46.5557 1C47.0832 1.00008 47.5105 1.15699 47.8384 1.46979C48.1806 1.76835 48.3522 2.15173 48.3524 2.62083C48.3524 3.09017 48.1807 3.4819 47.8384 3.79479C47.5105 4.0932 47.083 4.24263 46.5557 4.24271C46.0423 4.24271 45.6141 4.09335 45.2718 3.79479C44.9438 3.4819 44.7798 3.09017 44.7798 2.62083C44.78 2.15178 44.944 1.76834 45.2718 1.46979C45.6141 1.1569 46.0422 1 46.5557 1Z" fill="white"/>
<path fill-rule="evenodd" clip-rule="evenodd" d="M31.2271 5.36372C32.3837 5.36372 33.4294 5.78775 34.361 6.61773V5.71467H37.2422V16.4667H34.361V15.8244C33.4116 16.6012 32.3885 17 31.2928 17C29.7632 17 28.4892 16.4453 27.4864 15.3392L27.4844 15.3373C26.492 14.2115 26 12.8088 26 11.1437C26 9.50655 26.4931 8.1284 27.4864 7.02449C28.4809 5.91935 29.7324 5.36372 31.2271 5.36372ZM31.6868 7.98583C30.9005 7.98583 30.2476 8.27864 29.7169 8.87475C29.1908 9.48109 28.925 10.2335 28.925 11.1437C28.925 12.1239 29.1871 12.9029 29.696 13.4989L29.898 13.7112C30.3841 14.1722 30.9701 14.3997 31.6649 14.3997C32.5243 14.3997 33.2036 14.1074 33.7233 13.5287C34.2464 12.9244 34.5142 12.1532 34.5142 11.1982C34.5142 10.2419 34.2459 9.46947 33.7213 8.86483C33.201 8.27981 32.5286 7.98583 31.6868 7.98583Z" fill="white"/>
<g clip-path="url(#clip0_11941_268)">
<path d="M0.25 14V13C0.25 12.5858 0.585786 12.25 1 12.25C1.41421 12.25 1.75 12.5858 1.75 13V14C1.75 15.2426 2.75736 16.25 4 16.25H5C5.41421 16.25 5.75 16.5858 5.75 17C5.75 17.4142 5.41421 17.75 5 17.75H4C1.92893 17.75 0.25 16.0711 0.25 14ZM16.25 14V13C16.25 12.5858 16.5858 12.25 17 12.25C17.4142 12.25 17.75 12.5858 17.75 13V14C17.75 16.0711 16.0711 17.75 14 17.75H13C12.5858 17.75 12.25 17.4142 12.25 17C12.25 16.5858 12.5858 16.25 13 16.25H14C15.2426 16.25 16.25 15.2426 16.25 14ZM0.25 5V4C0.25 1.92893 1.92893 0.25 4 0.25H5C5.41421 0.25 5.75 0.585786 5.75 1C5.75 1.41421 5.41421 1.75 5 1.75H4C2.75736 1.75 1.75 2.75736 1.75 4V5C1.75 5.41421 1.41421 5.75 1 5.75C0.585786 5.75 0.25 5.41421 0.25 5ZM16.25 5V4C16.25 2.75736 15.2426 1.75 14 1.75H13C12.5858 1.75 12.25 1.41421 12.25 1C12.25 0.585786 12.5858 0.25 13 0.25H14C16.0711 0.25 17.75 1.92893 17.75 4V5C17.75 5.41421 17.4142 5.75 17 5.75C16.5858 5.75 16.25 5.41421 16.25 5Z" fill="white"/>
</g>
<defs>
<clipPath id="clip0_11941_268">
<rect width="18" height="18" fill="white"/>
</clipPath>
</defs>
</svg>
