<svg width="48" height="16" viewBox="0 0 48 16" fill="none" xmlns="http://www.w3.org/2000/svg">
<path fill-rule="evenodd" clip-rule="evenodd" d="M40.6725 4.45833C41.7421 4.45833 42.6766 4.69326 43.4752 5.1625C44.2739 5.63183 44.8946 6.26501 45.3367 7.06146C45.7788 7.85788 46 8.76108 46 9.77081V10.2614C46 10.4321 45.9857 10.6099 45.9572 10.7948H38.0099C38.0407 11.2556 38.1435 11.6683 38.3201 12.0323C38.5483 12.4587 38.8621 12.7926 39.2613 13.0343C39.6606 13.2618 40.124 13.376 40.6517 13.376C41.1793 13.376 41.6141 13.2619 41.9564 13.0343C42.3128 12.8069 42.577 12.5158 42.7482 12.1604H45.7002C45.5006 12.8285 45.1656 13.4327 44.6953 13.9729C44.2247 14.5132 43.6467 14.9402 42.9623 15.2531C42.2777 15.566 41.514 15.7229 40.6725 15.7229C39.5888 15.7228 38.6266 15.4945 37.7853 15.0395C36.9582 14.5703 36.3088 13.9237 35.8381 13.0989C35.3818 12.2598 35.1539 11.292 35.1539 10.1968C35.154 9.07355 35.3819 8.08547 35.8381 7.23229C36.3088 6.36474 36.9581 5.68876 37.7853 5.20521C38.6123 4.70765 39.5747 4.45839 40.6725 4.45833ZM40.6725 6.80521C40.1878 6.80526 39.7385 6.91938 39.325 7.14688C38.9116 7.36017 38.5834 7.69405 38.341 8.14896C38.2109 8.40844 38.1191 8.70774 38.0631 9.04581H43.0908C43.048 8.3491 42.798 7.80132 42.3418 7.40313C41.8997 7.0049 41.3429 6.80521 40.6725 6.80521Z" fill="white"/>
<path d="M16.6489 15.4666H13.7605V0.10625H16.6489V15.4666Z" fill="white"/>
<path d="M21.9888 15.4666H19.1005V4.71458H21.9888V15.4666Z" fill="white"/>
<path d="M29.1214 12.7573L31.7955 4.71458H34.8124L30.8763 15.4666H27.3675L23.4095 4.71458H26.4472L29.1214 12.7573Z" fill="white"/>
<path d="M20.5557 0C21.0832 8.46607e-05 21.5105 0.156987 21.8384 0.469792C22.1806 0.768352 22.3522 1.15173 22.3524 1.62083C22.3524 2.09017 22.1807 2.4819 21.8384 2.79479C21.5105 3.0932 21.083 3.24263 20.5557 3.24271C20.0423 3.24271 19.6141 3.09335 19.2718 2.79479C18.9438 2.4819 18.7798 2.09017 18.7798 1.62083C18.78 1.15178 18.944 0.768338 19.2718 0.469792C19.6141 0.156903 20.0422 0 20.5557 0Z" fill="white"/>
<path fill-rule="evenodd" clip-rule="evenodd" d="M5.22713 4.36372C6.38368 4.36372 7.42938 4.78775 8.36103 5.61773V4.71467H11.2422V15.4667H8.36103V14.8244C7.41155 15.6012 6.38849 16 5.2928 16C3.76316 16 2.48918 15.4453 1.48636 14.3392L1.48437 14.3373C0.491954 13.2115 0 11.8088 0 10.1437C0 8.50655 0.493081 7.1284 1.48636 6.02449C2.4809 4.91935 3.73242 4.36372 5.22713 4.36372ZM5.68677 6.98583C4.90052 6.98583 4.2476 7.27864 3.7169 7.87475C3.19083 8.48109 2.92497 9.2335 2.92497 10.1437C2.92497 11.1239 3.18713 11.9029 3.696 12.4989L3.89797 12.7112C4.38412 13.1722 4.97012 13.3997 5.66488 13.3997C6.52431 13.3997 7.20363 13.1074 7.7233 12.5287C8.24639 11.9244 8.51424 11.1532 8.51424 10.1982C8.51424 9.24186 8.2459 8.46947 7.72131 7.86483C7.20099 7.27981 6.52857 6.98583 5.68677 6.98583Z" fill="white"/>
</svg>
