<svg width="68" height="18" viewBox="0 0 68 18" fill="none" xmlns="http://www.w3.org/2000/svg">
<path fill-rule="evenodd" clip-rule="evenodd" d="M30.8604 6.17969C31.8069 6.17973 32.6271 6.3402 33.3203 6.66016C34.0135 6.98015 34.5466 7.44013 34.9199 8.04004C35.2932 8.63999 35.4804 9.37987 35.4805 10.2598V16.5H32.9004V14.96C32.7537 15.2266 32.5798 15.4664 32.3799 15.6797C32.1799 15.893 31.9464 16.0802 31.6797 16.2402C31.4132 16.4001 31.1133 16.5196 30.7803 16.5996C30.4469 16.6929 30.0797 16.7402 29.6797 16.7402C28.8398 16.7402 28.1462 16.6065 27.5996 16.3398C27.0532 16.0599 26.6465 15.6934 26.3799 15.2402C26.1266 14.7736 26 14.2601 26 13.7002C26 13.0869 26.1533 12.5467 26.46 12.0801C26.7799 11.6135 27.2534 11.2471 27.8799 10.9805C28.5199 10.7138 29.3203 10.5801 30.2803 10.5801H32.7803C32.7803 10.0869 32.7133 9.6803 32.5801 9.36035C32.4467 9.02703 32.2399 8.78012 31.96 8.62012C31.68 8.46012 31.3065 8.37988 30.8398 8.37988C30.3333 8.37991 29.9 8.49315 29.54 8.71973C29.1935 8.93301 28.9804 9.26656 28.9004 9.71973H26.2803C26.347 8.99985 26.5805 8.38028 26.9805 7.86035C27.3937 7.32712 27.9331 6.91344 28.5996 6.62012C29.2796 6.32678 30.0337 6.17969 30.8604 6.17969ZM30.5996 12.2402C30.1865 12.2403 29.8467 12.2938 29.5801 12.4004C29.3268 12.4937 29.1395 12.6337 29.0195 12.8203C28.8997 13.0069 28.8398 13.2202 28.8398 13.46C28.8398 13.7266 28.8996 13.9468 29.0195 14.1201C29.1395 14.2934 29.3134 14.4262 29.54 14.5195C29.7667 14.6129 30.027 14.6602 30.3203 14.6602C30.6669 14.6601 30.9736 14.6004 31.2402 14.4805C31.5202 14.3471 31.76 14.1733 31.96 13.96C32.1599 13.7333 32.3133 13.4801 32.4199 13.2002C32.5399 12.9069 32.6202 12.5931 32.6602 12.2598V12.2402H30.5996Z" fill="#10111A"/>
<path fill-rule="evenodd" clip-rule="evenodd" d="M62.8984 6.17969C63.8983 6.17969 64.7719 6.39993 65.5186 6.83984C66.2652 7.27984 66.8455 7.87345 67.2588 8.62012C67.6721 9.36676 67.8789 10.2135 67.8789 11.1602V11.6201C67.8789 11.7801 67.8655 11.9468 67.8389 12.1201H60.4092C60.438 12.5521 60.5341 12.9391 60.6992 13.2803C60.9125 13.6801 61.2059 13.9931 61.5791 14.2197C61.9524 14.433 62.3856 14.54 62.8789 14.54C63.3722 14.54 63.7787 14.433 64.0986 14.2197C64.4319 14.0065 64.6789 13.7336 64.8389 13.4004H67.5986C67.412 14.0267 67.0989 14.5932 66.6592 15.0996C66.2193 15.6062 65.6789 16.0065 65.0391 16.2998C64.3991 16.5931 63.6851 16.7402 62.8984 16.7402C61.8853 16.7402 60.9858 16.5262 60.1992 16.0996C59.426 15.6597 58.8189 15.0535 58.3789 14.2803C57.9522 13.4936 57.7393 12.5862 57.7393 11.5596C57.7393 10.5065 57.9524 9.58013 58.3789 8.78027C58.8189 7.96694 59.4259 7.33322 60.1992 6.87988C60.9724 6.41342 61.8721 6.17974 62.8984 6.17969ZM62.8984 8.37988C62.4452 8.37993 62.0252 8.48691 61.6387 8.7002C61.2522 8.90016 60.9454 9.21317 60.7188 9.63965C60.5971 9.88291 60.5113 10.1635 60.459 10.4805H65.1592C65.1192 9.82731 64.8854 9.31374 64.459 8.94043C64.0457 8.5671 63.5251 8.37988 62.8984 8.37988Z" fill="#10111A"/>
<path d="M40.2988 16.5H37.5986V2.09961H40.2988V16.5Z" fill="#10111A"/>
<path d="M45.291 16.5H42.5908V6.41992H45.291V16.5Z" fill="#10111A"/>
<path d="M51.959 13.96L54.459 6.41992H57.2793L53.5996 16.5H50.3193L46.6191 6.41992H49.459L51.959 13.96Z" fill="#10111A"/>
<path d="M43.9512 2C44.4443 2.00008 44.8438 2.14718 45.1504 2.44043C45.4703 2.72033 45.6307 3.07974 45.6309 3.51953C45.6309 3.95953 45.4704 4.32678 45.1504 4.62012C44.8438 4.89988 44.4442 5.03996 43.9512 5.04004C43.4713 5.04004 43.0709 4.90002 42.751 4.62012C42.4443 4.32678 42.291 3.95953 42.291 3.51953C42.2911 3.07979 42.4445 2.72032 42.751 2.44043C43.071 2.1471 43.4712 2 43.9512 2Z" fill="#10111A"/>
<path d="M1 12C1.55228 12 2 12.4477 2 13C2 14.6569 3.34315 16 5 16C5.55228 16 6 16.4477 6 17C6 17.5523 5.55228 18 5 18C2.23858 18 0 15.7614 0 13C0 12.4477 0.447715 12 1 12Z" fill="#10111A"/>
<path d="M17 12C17.5523 12 18 12.4477 18 13C18 15.7614 15.7614 18 13 18C12.4477 18 12 17.5523 12 17C12 16.4477 12.4477 16 13 16C14.6569 16 16 14.6569 16 13C16 12.4477 16.4477 12 17 12Z" fill="#10111A"/>
<path d="M5 0C5.55228 0 6 0.447715 6 1C6 1.55228 5.55228 2 5 2C3.34315 2 2 3.34315 2 5C2 5.55228 1.55228 6 1 6C0.447715 6 0 5.55228 0 5C0 2.23858 2.23858 0 5 0Z" fill="#10111A"/>
<path d="M13 0C15.7614 0 18 2.23858 18 5C18 5.55228 17.5523 6 17 6C16.4477 6 16 5.55228 16 5C16 3.34315 14.6569 2 13 2C12.4477 2 12 1.55228 12 1C12 0.447715 12.4477 0 13 0Z" fill="#10111A"/>
<circle cx="9" cy="9" r="5" fill="#E83B3B"/>
</svg>
